<svg xmlns="http://www.w3.org/2000/svg" xmlns:xlink="http://www.w3.org/1999/xlink" viewBox="0 0 511.72 512.45"><defs><style>.cls-1{fill:none;}.cls-2{isolation:isolate;}.cls-3{fill:#fff;}.cls-4{clip-path:url(#clip-path);}.cls-5{fill:#f2f2f2;}.cls-6{fill:#e6e7e8;}.cls-7{fill:#bcbec0;}.cls-8{fill:#20bfff;}.cls-10,.cls-8,.cls-9{mix-blend-mode:multiply;}.cls-9{fill:#0073ff;}.cls-10{fill:#141ed2;}.cls-11{clip-path:url(#clip-path-2);}</style><clipPath id="clip-path" transform="translate(0 0)"><path class="cls-1" d="M0,0V511.72H511.72V0ZM464.32,376A76.32,76.32,0,0,1,388,452.29H201.64A76.32,76.32,0,0,1,125.31,376V189.6a76.33,76.33,0,0,1,76.33-76.33H388a76.33,76.33,0,0,1,76.32,76.33Z"/></clipPath><clipPath id="clip-path-2" transform="translate(0 0)"><rect class="cls-1" x="438.44" y="439.25" width="73.21" height="73.21" rx="16.48"/></clipPath></defs><title>intro-underlay</title><g class="cls-2"><g id="Layer_2" data-name="Layer 2"><g id="Layer_1-2" data-name="Layer 1"><path class="cls-3" d="M0,0V511.72H511.72V0ZM464.32,376A76.32,76.32,0,0,1,388,452.29H201.63A76.32,76.32,0,0,1,125.31,376V189.6a76.33,76.33,0,0,1,76.32-76.33H388a76.33,76.33,0,0,1,76.32,76.33Z" transform="translate(0 0)"/><g class="cls-4"><rect class="cls-5" x="427.77" y="104.42" width="73.1" height="73.1" rx="16.46"/><rect class="cls-5" x="261.87" y="116.35" width="18.04" height="18.04" rx="4.06" transform="translate(396.26 -145.53) rotate(90)"/><rect class="cls-6" x="83.8" y="382.68" width="73.1" height="73.1" rx="16.46"/><rect class="cls-5" x="129.92" y="438.54" width="73.1" height="73.1" rx="16.46"/><rect class="cls-5" x="262.74" y="62.88" width="73.1" height="73.1" rx="16.46"/><rect class="cls-6" x="131.64" y="116.35" width="32.03" height="32.03" rx="7.21" transform="translate(280.02 -15.3) rotate(90)"/><rect class="cls-5" x="196.26" y="90.53" width="73.1" height="73.1" rx="16.46"/><rect class="cls-6" x="189.82" y="17.43" width="73.1" height="73.1" rx="16.46"/><rect class="cls-7" x="240.85" y="77.86" width="42.04" height="42.04" rx="9.47"/><rect class="cls-6" x="67.09" y="436.54" width="42.04" height="42.04" rx="9.47"/><rect class="cls-5" x="0.02" width="147.15" height="147.15" rx="33.13"/><rect class="cls-6" x="43.28" y="112.6" width="102.94" height="102.94" rx="23.18"/><rect class="cls-5" x="146.22" y="132.23" width="73.1" height="73.1" rx="16.46"/><rect class="cls-5" x="146.22" y="62.88" width="73.1" height="73.1" rx="16.46"/><rect class="cls-5" x="22.26" y="190.1" width="42.04" height="42.04" rx="9.47"/></g><rect class="cls-8" x="233.53" y="72.41" width="18.04" height="18.04" rx="4.06" transform="translate(323.98 -161.12) rotate(90)"/><rect class="cls-9" x="55.48" y="266.86" width="18.04" height="18.04" rx="4.06" transform="translate(340.38 211.37) rotate(90)"/><rect class="cls-10" x="421.77" y="40.16" width="18.04" height="18.04" rx="4.06" transform="translate(479.96 -381.61) rotate(90)"/><rect class="cls-10" x="100.12" y="446.76" width="18.04" height="18.04" rx="4.06" transform="translate(564.92 346.64) rotate(90)"/><rect class="cls-9" x="306" y="42.84" width="42.04" height="42.04" rx="9.47"/><rect class="cls-8" x="28.21" y="41.98" width="26.14" height="26.14" rx="5.88" transform="translate(96.33 13.77) rotate(90)"/><rect class="cls-10" x="476.94" y="356.41" width="26.14" height="26.14" rx="5.88" transform="translate(859.49 -120.53) rotate(90)"/><rect class="cls-8" x="458.32" y="8.86" width="26.14" height="26.14" rx="5.88" transform="translate(493.31 -449.46) rotate(90)"/><rect class="cls-10" x="235.48" y="9.76" width="26.14" height="26.14" rx="5.88" transform="translate(271.37 -225.72) rotate(90)"/><rect class="cls-5" x="438.44" y="439.25" width="73.21" height="73.21" rx="16.48"/><g class="cls-11"><rect class="cls-9" x="376.83" y="390.73" width="103.31" height="103.31" rx="23.26"/></g><rect class="cls-8" x="27.02" y="478.99" width="20.04" height="20.04" rx="4.51" transform="translate(526.05 451.97) rotate(90)"/></g></g></g></svg>