<svg xmlns="http://www.w3.org/2000/svg" viewBox="0 0 704.24 307.61"><defs><style>.cls-1{isolation:isolate;}.cls-2{fill:#0073ff;}.cls-2,.cls-5{mix-blend-mode:multiply;}.cls-3{fill:#f2f2f2;}.cls-4{fill:#c8c8c8;}.cls-5{fill:#20bfff;}.cls-6{fill:#e6e7e8;}</style></defs><title>intro-texture-4</title><g class="cls-1"><g id="Layer_2" data-name="Layer 2"><g id="Layer_1-2" data-name="Layer 1"><rect class="cls-2" x="338.1" y="7.84" width="61.42" height="61.42" rx="13.83" transform="translate(737.62 77.09) rotate(-180)"/><rect class="cls-3" x="625.38" width="68.52" height="68.52" rx="15.43" transform="translate(693.9 -625.38) rotate(90)"/><rect class="cls-4" x="650.19" y="135.27" width="54.05" height="54.05" rx="12.17" transform="translate(839.51 -514.91) rotate(90)"/><rect class="cls-5" x="185.22" y="127.47" width="91.25" height="91.25" rx="20.54" transform="translate(403.94 -57.76) rotate(90)"/><rect class="cls-4" x="511.32" y="209.86" width="66.71" height="66.71" rx="15.02" transform="translate(787.9 -301.46) rotate(90)"/><rect class="cls-2" x="578.04" y="172.32" width="112.23" height="112.23" rx="25.27" transform="translate(862.58 -405.72) rotate(90)"/><rect class="cls-4" y="162.35" width="52.62" height="52.62" rx="11.85" transform="translate(214.97 162.35) rotate(90)"/><rect class="cls-5" x="385.71" y="270.93" width="36.67" height="36.67" rx="8.26" transform="translate(693.32 -114.78) rotate(90)"/><rect class="cls-6" x="459.5" y="98.74" width="36.67" height="36.67" rx="8.26" transform="translate(594.92 -360.76) rotate(90)"/><rect class="cls-5" x="121.56" y="218.57" width="24.65" height="24.65" rx="5.55" transform="translate(364.78 97.01) rotate(90)"/></g></g></g></svg>